<?xml version="1.0" standalone="no"?>
<!DOCTYPE svg PUBLIC "-//W3C//DTD SVG 20010904//EN"
 "http://www.w3.org/TR/2001/REC-SVG-20010904/DTD/svg10.dtd">
<svg version="1.0" xmlns="http://www.w3.org/2000/svg"
 width="182.000000pt" height="182.000000pt" viewBox="0 0 182.000000 182.000000"
 preserveAspectRatio="xMidYMid meet">
<metadata>
Created by potrace 1.11, written by Peter Selinger 2001-2013
</metadata>
<g transform="translate(0.000000,182.000000) scale(0.100000,-0.100000)"
fill="#000000" stroke="none">
<path d="M659 1730 c-160 -8 -252 -22 -276 -42 -7 -6 -13 -30 -13 -53 0 -41 2
-44 36 -55 30 -10 35 -16 30 -35 -8 -32 27 -162 65 -236 41 -82 73 -129 159
-230 38 -46 77 -102 86 -126 24 -63 8 -105 -80 -211 -88 -105 -123 -157 -165
-241 -38 -73 -73 -203 -65 -236 4 -18 0 -23 -28 -31 -30 -9 -33 -13 -36 -55
-2 -29 2 -50 11 -57 33 -28 165 -37 527 -37 362 0 494 9 527 37 9 7 13 28 11
57 -3 41 -6 46 -33 54 -29 8 -31 12 -32 60 -2 63 -48 195 -97 275 -19 31 -65
93 -102 137 -155 185 -157 218 -21 377 78 92 115 145 150 214 36 72 68 175 70
228 2 40 5 45 32 53 28 8 30 12 30 58 0 44 -3 51 -26 62 -61 29 -477 47 -760
33z"/>
</g>
</svg>
